<svg width="14" height="14" viewBox="0 0 14 14" fill="none" xmlns="http://www.w3.org/2000/svg">
<path fill-rule="evenodd" clip-rule="evenodd" d="M13.4 7.37697C13.4 7.80979 13.3559 8.242 13.2694 8.66332C13.185 9.07462 13.06 9.47843 12.8962 9.86444C12.7362 10.2436 12.5378 10.609 12.3059 10.9498C12.0774 11.2884 11.8143 11.6061 11.5252 11.8957C11.2355 12.184 10.9167 12.4465 10.5783 12.6759C10.2364 12.9061 9.87047 13.1043 9.49106 13.265C9.10448 13.4279 8.69975 13.5527 8.2888 13.637C7.86693 13.7238 7.43313 13.7681 6.99969 13.7681C6.56592 13.7681 6.13215 13.7238 5.71088 13.637C5.2993 13.5527 4.89459 13.4279 4.50832 13.265C4.12893 13.1043 3.76264 12.9061 3.42076 12.6759C3.0823 12.4465 2.76354 12.184 2.47446 11.8957C2.18508 11.6061 1.92193 11.2884 1.69317 10.9498C1.46253 10.609 1.26376 10.2436 1.10313 9.86444C0.939356 9.47843 0.814055 9.0746 0.72936 8.66332C0.643738 8.242 0.599976 7.80979 0.599976 7.37697C0.599976 6.94382 0.643713 6.51068 0.729385 6.09029C0.81408 5.67899 0.939381 5.27456 1.10316 4.88917C1.26378 4.5097 1.46256 4.14397 1.69319 3.80318C1.92195 3.46429 2.18511 3.14721 2.47449 2.85729C2.76357 2.56893 3.08233 2.30713 3.42078 2.07808C3.76267 1.84683 4.12895 1.64869 4.50834 1.48765C4.89462 1.32441 5.2993 1.19929 5.7109 1.11566C6.13217 1.02954 6.56594 0.98584 6.99971 0.98584C7.43316 0.98584 7.86693 1.02954 8.28882 1.11566C8.69977 1.19931 9.10448 1.32443 9.49109 1.48765C9.87047 1.64866 10.2364 1.84683 10.5783 2.07808C10.9168 2.30713 11.2356 2.56893 11.5252 2.85729C11.8143 3.14721 12.0775 3.46429 12.3059 3.80318C12.5378 4.14397 12.7362 4.50973 12.8962 4.88917C13.06 5.27456 13.185 5.67899 13.2694 6.09029C13.3559 6.51068 13.4 6.94382 13.4 7.37697ZM4.66766 2.44037C3.14351 3.15908 2.00595 4.5615 1.65124 6.25165C1.79533 6.2529 4.07295 6.28162 6.69713 5.58537C5.75116 3.90708 4.74049 2.53745 4.66766 2.44037ZM7.14997 6.4258C4.33577 7.2671 1.6353 7.20657 1.53844 7.20284C1.53686 7.2615 1.53405 7.31828 1.53405 7.37696C1.53405 8.77905 2.06376 10.0573 2.93444 11.0238C2.93256 11.0209 4.42828 8.3712 7.3778 7.41878C7.44904 7.39507 7.52156 7.37383 7.59343 7.35325C7.45626 7.04307 7.30653 6.73225 7.14997 6.4258ZM10.6092 3.28078C9.64698 2.4335 8.3835 1.91956 6.99967 1.91956C6.55558 1.91956 6.12461 1.97324 5.71179 2.07247C5.79365 2.18234 6.82028 3.5423 7.75501 5.25614C9.81732 4.48411 10.5958 3.30074 10.6092 3.28078ZM7.96599 8.25761C7.95382 8.26164 7.94165 8.26512 7.92975 8.26947C4.70494 9.39206 3.65184 11.6544 3.64045 11.6791C4.56833 12.3996 5.73214 12.8344 6.99971 12.8344C7.7566 12.8344 8.47757 12.6805 9.13354 12.4018C9.0526 11.925 8.73509 10.2536 7.96599 8.25761ZM10.0539 11.9032C11.2811 11.0762 12.1527 9.76304 12.3959 8.24198C12.2834 8.20578 10.7542 7.72239 8.99006 8.00482C9.70697 9.9721 9.99825 11.5743 10.0539 11.9032ZM8.1757 6.0694C8.30256 6.32967 8.4254 6.59457 8.53883 6.8608C8.57916 6.9563 8.61854 7.04993 8.65697 7.14353C10.5346 6.9076 12.3843 7.30454 12.4634 7.32075C12.4509 6.02695 11.9874 4.83953 11.2206 3.90991C11.2102 3.92454 10.3336 5.18935 8.1757 6.0694Z" fill="white"/>
</svg>
