<svg width="14" height="14" viewBox="0 0 14 14" fill="none" xmlns="http://www.w3.org/2000/svg">
<path fill-rule="evenodd" clip-rule="evenodd" d="M7.00058 0.98584C5.26242 0.98584 5.04429 0.99344 4.36161 1.02451C3.68027 1.05571 3.2152 1.16358 2.80827 1.32184C2.38733 1.48531 2.03026 1.70398 1.67452 2.05985C1.31852 2.41559 1.09985 2.77266 0.935846 3.19346C0.777177 3.60053 0.669176 4.06574 0.638509 4.74681C0.607976 5.42949 0.599976 5.64775 0.599976 7.38591C0.599976 9.12406 0.607709 9.34153 0.638643 10.0242C0.669976 10.7055 0.777844 11.1706 0.935979 11.5775C1.09958 11.9985 1.31825 12.3556 1.67412 12.7113C2.02972 13.0673 2.38679 13.2865 2.80747 13.45C3.21467 13.6082 3.67987 13.7161 4.36108 13.7473C5.04376 13.7784 5.26176 13.786 6.99978 13.786C8.73806 13.786 8.95553 13.7784 9.6382 13.7473C10.3195 13.7161 10.7851 13.6082 11.1924 13.45C11.6132 13.2865 11.9697 13.0673 12.3253 12.7113C12.6813 12.3556 12.9 11.9985 13.064 11.5777C13.2213 11.1706 13.3293 10.7054 13.3613 10.0243C13.392 9.34166 13.4 9.12406 13.4 7.38591C13.4 5.64775 13.392 5.42962 13.3613 4.74695C13.3293 4.0656 13.2213 3.60053 13.064 3.1936C12.9 2.77266 12.6813 2.41559 12.3253 2.05985C11.9693 1.70385 11.6133 1.48518 11.192 1.32184C10.7839 1.16358 10.3186 1.05571 9.63727 1.02451C8.9546 0.99344 8.73726 0.98584 6.99858 0.98584H7.00058ZM6.42641 2.13917C6.59681 2.1389 6.78695 2.13917 7.00055 2.13917C8.70937 2.13917 8.9119 2.1453 9.58671 2.17597C10.2107 2.2045 10.5494 2.30877 10.775 2.39637C11.0737 2.51237 11.2866 2.65104 11.5105 2.87504C11.7345 3.09904 11.8731 3.31238 11.9894 3.61105C12.077 3.83639 12.1814 4.17506 12.2098 4.79906C12.2405 5.47374 12.2471 5.6764 12.2471 7.38442C12.2471 9.09244 12.2405 9.29511 12.2098 9.96978C12.1813 10.5938 12.077 10.9325 11.9894 11.1578C11.8734 11.4565 11.7345 11.6691 11.5105 11.893C11.2865 12.117 11.0738 12.2557 10.775 12.3717C10.5497 12.4597 10.2107 12.5637 9.58671 12.5922C8.91203 12.6229 8.70937 12.6295 7.00055 12.6295C5.2916 12.6295 5.08906 12.6229 4.41439 12.5922C3.79038 12.5634 3.45171 12.4591 3.22598 12.3715C2.92731 12.2555 2.71397 12.1169 2.48997 11.8929C2.26597 11.6689 2.1273 11.4561 2.01103 11.1573C1.92343 10.9319 1.81903 10.5933 1.79063 9.96925C1.75996 9.29458 1.75383 9.09191 1.75383 7.38282C1.75383 5.67374 1.75996 5.47214 1.79063 4.79746C1.81916 4.17345 1.92343 3.83478 2.01103 3.60918C2.12703 3.31051 2.26597 3.09718 2.48997 2.87317C2.71397 2.64917 2.92731 2.5105 3.22598 2.39424C3.45158 2.30624 3.79038 2.20223 4.41439 2.17357C5.00479 2.1469 5.2336 2.1389 6.42641 2.13757V2.13917ZM10.4169 3.20185C9.99285 3.20185 9.64885 3.54545 9.64885 3.96959C9.64885 4.39359 9.99285 4.7376 10.4169 4.7376C10.8409 4.7376 11.1849 4.39359 11.1849 3.96959C11.1849 3.54558 10.8409 3.20185 10.4169 3.20185ZM7.00059 4.09919C5.1855 4.09919 3.71389 5.5708 3.71389 7.38589C3.71389 9.20097 5.1855 10.6719 7.00059 10.6719C8.81567 10.6719 10.2868 9.20097 10.2868 7.38589C10.2868 5.5708 8.81567 4.09919 7.00059 4.09919ZM7.00056 5.25253C8.17871 5.25253 9.13392 6.20761 9.13392 7.38589C9.13392 8.56403 8.17871 9.51924 7.00056 9.51924C5.82228 9.51924 4.86721 8.56403 4.86721 7.38589C4.86721 6.20761 5.82228 5.25253 7.00056 5.25253Z" fill="white"/>
</svg>
