<svg width="12" height="11" viewBox="0 0 12 11" fill="none" xmlns="http://www.w3.org/2000/svg">
<path fill-rule="evenodd" clip-rule="evenodd" d="M5.6406 3.13944L5.66578 3.55467L5.2461 3.50383C3.71843 3.30892 2.38383 2.64795 1.25067 1.53785L0.696681 0.987042L0.553988 1.3938C0.251813 2.30052 0.444869 3.25808 1.0744 3.90211C1.41015 4.25801 1.33461 4.30886 0.755438 4.09701C0.553988 4.02922 0.377719 3.97837 0.360931 4.00379C0.302175 4.06311 0.503625 4.83425 0.663106 5.13931C0.881344 5.56301 1.32621 5.97824 1.81305 6.22399L2.22434 6.41889L1.73751 6.42736C1.26746 6.42736 1.25067 6.43584 1.30103 6.61379C1.46891 7.1646 2.13201 7.74931 2.87066 8.00353L3.39108 8.18149L2.93781 8.45266C2.26631 8.84246 1.4773 9.06279 0.688288 9.07973C0.310569 9.08821 0 9.1221 0 9.14752C0 9.23227 1.02404 9.70681 1.61999 9.89324C3.40786 10.4441 5.53148 10.2068 7.1263 9.26616C8.25945 8.59671 9.39261 7.26629 9.92142 5.97824C10.2068 5.29185 10.4922 4.03769 10.4922 3.43603C10.4922 3.04623 10.5174 2.99539 10.9874 2.52931C11.2644 2.25815 11.5246 1.96155 11.575 1.87681C11.6589 1.71581 11.6505 1.71581 11.2224 1.85987C10.509 2.11409 10.4083 2.08019 10.7608 1.69886C11.021 1.42769 11.3316 0.936198 11.3316 0.79214C11.3316 0.766718 11.2057 0.809088 11.063 0.885354C10.9119 0.970094 10.5761 1.0972 10.3243 1.17347L9.87105 1.31753L9.45976 1.03789C9.23313 0.885354 8.91417 0.715873 8.74629 0.665029C8.31821 0.546393 7.6635 0.563341 7.27738 0.698925C6.22816 1.08026 5.56506 2.06324 5.6406 3.13944Z" fill="white"/>
</svg>
