<svg width="14" height="11" viewBox="0 0 14 11" fill="none" xmlns="http://www.w3.org/2000/svg">
<path fill-rule="evenodd" clip-rule="evenodd" d="M12.0008 1.2605C12.5515 1.41164 12.9853 1.85695 13.1325 2.42245C13.4 3.44736 13.4 5.58584 13.4 5.58584C13.4 5.58584 13.4 7.72425 13.1325 8.74923C12.9853 9.31473 12.5515 9.76004 12.0008 9.91125C11.0027 10.1858 6.99998 10.1858 6.99998 10.1858C6.99998 10.1858 2.99728 10.1858 1.9991 9.91125C1.44834 9.76004 1.01459 9.31473 0.867394 8.74923C0.599976 7.72425 0.599976 5.58584 0.599976 5.58584C0.599976 5.58584 0.599976 3.44736 0.867394 2.42245C1.01459 1.85695 1.44834 1.41164 1.9991 1.2605C2.99728 0.98584 6.99998 0.98584 6.99998 0.98584C6.99998 0.98584 11.0027 0.98584 12.0008 1.2605ZM5.79999 3.7858V7.7858L8.99999 5.78587L5.79999 3.7858Z" fill="white"/>
</svg>
